<svg width="48" height="43" viewBox="0 0 48 43" fill="none" xmlns="http://www.w3.org/2000/svg">
<ellipse cx="24" cy="21.5" rx="24" ry="21.5" fill="#1A1A1A"/>
<path d="M9.2017 32V13.8182H11.4034V22.8381H11.6165L19.7841 13.8182H22.6605L15.0256 22.0213L22.6605 32H19.9972L13.6761 23.5483L11.4034 26.1051V32H9.2017ZM35.4535 18.3636C35.3469 17.464 34.9149 16.7656 34.1573 16.2685C33.3997 15.7713 32.4705 15.5227 31.3697 15.5227C30.5647 15.5227 29.8604 15.6529 29.2567 15.9134C28.659 16.1738 28.1914 16.5318 27.854 16.9876C27.5226 17.4433 27.3569 17.9612 27.3569 18.5412C27.3569 19.0265 27.4723 19.4438 27.7031 19.793C27.9399 20.1362 28.2417 20.4233 28.6087 20.6541C28.9756 20.879 29.3603 21.0655 29.7628 21.2134C30.1652 21.3555 30.5352 21.4709 30.8725 21.5597L32.7191 22.0568C33.1926 22.1811 33.7193 22.3527 34.2994 22.5717C34.8853 22.7907 35.4446 23.0896 35.9773 23.4684C36.5159 23.8413 36.9598 24.3207 37.3089 24.9066C37.6581 25.4925 37.8327 26.2116 37.8327 27.0639C37.8327 28.0464 37.5753 28.9342 37.0604 29.7273C36.5514 30.5204 35.8056 31.1507 34.8232 31.6183C33.8466 32.0858 32.6599 32.3196 31.2631 32.3196C29.9611 32.3196 28.8336 32.1095 27.8807 31.6893C26.9337 31.2691 26.188 30.6831 25.6435 29.9315C25.1049 29.1798 24.8001 28.3068 24.729 27.3125H27.0018C27.061 27.9991 27.2918 28.5672 27.6942 29.017C28.1026 29.4609 28.6175 29.7924 29.239 30.0114C29.8664 30.2244 30.5411 30.331 31.2631 30.331C32.1036 30.331 32.8582 30.1948 33.527 29.9226C34.1958 29.6444 34.7255 29.2597 35.1161 28.7685C35.5067 28.2713 35.7021 27.6913 35.7021 27.0284C35.7021 26.4247 35.5334 25.9335 35.196 25.5547C34.8587 25.1759 34.4148 24.8681 33.8643 24.6314C33.3139 24.3946 32.7191 24.1875 32.0799 24.0099L29.8427 23.3707C28.4222 22.9624 27.2977 22.3794 26.4691 21.6218C25.6405 20.8642 25.2262 19.8729 25.2262 18.6477C25.2262 17.6297 25.5014 16.742 26.0518 15.9844C26.6082 15.2209 27.3539 14.629 28.2891 14.2088C29.2301 13.7827 30.2807 13.5696 31.4407 13.5696C32.6126 13.5696 33.6542 13.7797 34.5657 14.1999C35.4772 14.6142 36.1992 15.1824 36.7319 15.9045C37.2705 16.6265 37.5546 17.4463 37.5842 18.3636H35.4535Z" fill="white"/>
</svg>
